<!-- icon666.com - MILLIONS vector ICONS FREE --><svg clip-rule="evenodd" fill-rule="evenodd" stroke-linejoin="round" stroke-miterlimit="2" viewBox="0 0 25 25" xmlns="http://www.w3.org/2000/svg" xmlns:serif="http://www.serif.com/"><g><path d="m8.5 18c-.828 0-1.5.672-1.5 1.5s.672 1.5 1.5 1.5 1.5-.672 1.5-1.5-.672-1.5-1.5-1.5zm10 0c-.828 0-1.5.672-1.5 1.5s.672 1.5 1.5 1.5 1.5-.672 1.5-1.5-.672-1.5-1.5-1.5zm-9.302-3 .126.602c.048.232.252.398.489.398h6.687c.276 0 .5.224.5.5s-.224.5-.5.5h-6.687c-.71 0-1.323-.498-1.468-1.194-.454-2.18-1.715-8.228-2.169-10.408-.048-.232-.252-.398-.489-.398h-2.187c-.276 0-.5-.224-.5-.5s.224-.5.5-.5h2.187c.71 0 1.323.498 1.468 1.194l.585 2.806h10.76c.441 0 .86.194 1.145.53.285.337.407.782.335 1.217-.196 1.174-.494 2.959-.667 4-.121.723-.746 1.253-1.48 1.253zm3.802-4v-1.5c0-.276.224-.5.5-.5s.5.224.5.5v1.5h1.5c.276 0 .5.224.5.5s-.224.5-.5.5h-1.5v1.5c0 .276-.224.5-.5.5s-.5-.224-.5-.5v-1.5h-1.5c-.276 0-.5-.224-.5-.5s.224-.5.5-.5z"></path></g></svg>